<?xml version="1.0" encoding="utf-8"?>
<!-- Generator: Adobe Illustrator 27.5.0, SVG Export Plug-In . SVG Version: 6.00 Build 0)  -->
<svg version="1.1" id="Слой_1" xmlns="http://www.w3.org/2000/svg" xmlns:xlink="http://www.w3.org/1999/xlink" x="0px" y="0px"
	 viewBox="0 0 2825.549 2000.001" style="enable-background:new 0 0 2825.549 2000.001;" xml:space="preserve">
<g>
	<rect x="-0.001" style="fill:#FFFFFF;" width="2825.549" height="2000.001"/>
	<linearGradient id="SVGID_1_" gradientUnits="userSpaceOnUse" x1="1412.7742" y1="2528.8994" x2="1412.7742" y2="1574.4949">
		<stop  offset="0" style="stop-color:#D1D7E0"/>
		<stop  offset="1" style="stop-color:#FFFFFF"/>
	</linearGradient>
	<rect x="-0.001" y="1637.183" style="opacity:0.95;fill:url(#SVGID_1_);" width="2825.549" height="362.818"/>
	
		<linearGradient id="SVGID_00000053530094944410987060000005557857699970491009_" gradientUnits="userSpaceOnUse" x1="972.1051" y1="-238.3553" x2="401.9109" y2="1912.825">
		<stop  offset="0.0052" style="stop-color:#1A2257"/>
		<stop  offset="1" style="stop-color:#5E60F2"/>
	</linearGradient>
	<path style="fill:url(#SVGID_00000053530094944410987060000005557857699970491009_);" d="M1091.939,2000.001H-0.001V738.665
		c0,0,96.281,701.372,567.998,814.704C1039.692,1666.7,1091.939,2000.001,1091.939,2000.001z"/>
	<g style="opacity:0.95;">
		
			<linearGradient id="SVGID_00000014605535977337964900000004164277038542782882_" gradientUnits="userSpaceOnUse" x1="2616.0806" y1="855.4614" x2="355.1739" y2="1636.6917">
			<stop  offset="0" style="stop-color:#D1D7E0"/>
			<stop  offset="1" style="stop-color:#EBEBFF"/>
		</linearGradient>
		<path style="fill:url(#SVGID_00000014605535977337964900000004164277038542782882_);" d="M2330.041,2000.001h31.268
			c94.941-47.896,181.246-110.409,257.239-186.402c87.397-87.376,156.964-188.433,207.001-300.582v-34.659
			C2731.5,1707.944,2553.557,1894.636,2330.041,2000.001z M2618.548,395.345c-92.107-92.084-199.347-164.395-318.771-214.901
			c-123.643-52.314-254.963-78.828-390.346-78.828c-135.382,0-266.725,26.514-390.367,78.828
			c-119.424,50.506-226.663,122.817-318.771,214.901c-92.085,92.107-164.396,199.346-214.924,318.77
			c-52.292,123.644-78.806,254.985-78.806,390.368c0,135.382,26.514,266.702,78.806,390.345
			c50.528,119.425,122.839,226.686,214.924,318.771c75.994,75.993,162.275,138.507,257.218,186.402h31.313
			c-335.867-158.349-568.869-500.24-568.869-895.518c0-545.591,443.887-989.477,989.477-989.477
			c413.378,0,768.349,254.807,916.117,615.602v-34.682C2775.512,583.777,2705.945,482.743,2618.548,395.345z"/>
	</g>
	
		<linearGradient id="SVGID_00000136413379839496842820000005027390258299789726_" gradientUnits="userSpaceOnUse" x1="917.9001" y1="-252.723" x2="347.7033" y2="1898.4667">
		<stop  offset="0.0052" style="stop-color:#1A2257"/>
		<stop  offset="1" style="stop-color:#5E60F2"/>
	</linearGradient>
	<path style="fill:url(#SVGID_00000136413379839496842820000005027390258299789726_);" d="M1633.668,214.3
		c-7.029,218.985-156.383,301.095-356.733,409.271c-93.334,50.393-197.717,106.435-303.929,184.638
		c-53.72,39.548-110.721,67.11-169.15,85.189c-252.731,78.271-531.932-20.51-685.771-92.375
		C44.837,766.786-0.001,738.665-0.001,738.665V0h1605.459C1626.816,83.962,1635.588,154.264,1633.668,214.3z"/>
	<g>
		
			<linearGradient id="SVGID_00000076563227409455618270000015147050137167470741_" gradientUnits="userSpaceOnUse" x1="-5.000000e-04" y1="472.4648" x2="1673.4744" y2="472.4648">
			<stop  offset="0.0052" style="stop-color:#1A2257"/>
			<stop  offset="1" style="stop-color:#5E60F2"/>
		</linearGradient>
		<path style="fill:url(#SVGID_00000076563227409455618270000015147050137167470741_);" d="M1649.001,0h-2.299
			c42.784,180.689,30.554,306.14-38.923,404.741c-66.285,94.049-181.111,156.049-314.062,227.823
			c-95.812,51.734-204.39,110.364-314.039,191.066c-214.165,157.678-479.372,129.49-664.122,78.092
			C174.26,862.42,57.224,803.924-0.001,772.523v2.566c57.715,31.58,174.328,89.652,314.91,128.775
			c98.155,27.296,191.803,41.065,279.2,41.065c17.565,0,34.861-0.558,51.912-1.674c127.37-8.302,240.077-47.961,334.996-117.817
			c109.493-80.613,218.027-139.221,313.771-190.909c133.195-71.909,248.223-134.021,314.798-228.516
			c35.085-49.771,55.237-106.145,61.644-172.387C1677.636,167.186,1670.359,90.59,1649.001,0z"/>
	</g>
	
		<linearGradient id="SVGID_00000099624112910951574870000013221418968768378029_" gradientUnits="userSpaceOnUse" x1="1587.4421" y1="-258.3013" x2="1302.3448" y2="939.1069">
		<stop  offset="0.0052" style="stop-color:#1A2257"/>
		<stop  offset="1" style="stop-color:#5E60F2"/>
	</linearGradient>
	<path style="fill:url(#SVGID_00000099624112910951574870000013221418968768378029_);" d="M1633.668,214.3
		c-7.029,218.985-156.383,301.095-356.733,409.271c-18.368-38.499-28.634-81.596-28.634-127.103
		c0-163.437,132.481-295.917,295.94-295.917C1575.418,200.552,1605.459,205.372,1633.668,214.3z"/>
	
		<linearGradient id="SVGID_00000160872104002377173020000000798528099580695194_" gradientUnits="userSpaceOnUse" x1="1561.3761" y1="1443.0164" x2="1520.1875" y2="696.4628">
		<stop  offset="0" style="stop-color:#D1D7E0"/>
		<stop  offset="1" style="stop-color:#EBEBFF"/>
	</linearGradient>
	<path style="opacity:0.95;fill:url(#SVGID_00000160872104002377173020000000798528099580695194_);" d="M1728.764,1023.932h-410.12
		c-32.402,0-58.669-26.267-58.669-58.669V555.142c0-32.401,26.267-58.669,58.669-58.669h410.12c32.402,0,58.67,26.268,58.67,58.669
		v410.121C1787.434,997.664,1761.166,1023.932,1728.764,1023.932z"/>
	<rect x="1401.602" y="903.846" style="fill:#96BFE6;" width="244.204" height="12.064"/>
	<rect x="1436.189" y="941.859" style="fill:#96BFE6;" width="175.028" height="12.064"/>
	
		<linearGradient id="SVGID_00000115491775501486183430000003579239219587445641_" gradientUnits="userSpaceOnUse" x1="2235.1475" y1="1651.1451" x2="2235.1475" y2="882.5591">
		<stop  offset="0" style="stop-color:#D1D7E0"/>
		<stop  offset="1" style="stop-color:#EBEBFF"/>
	</linearGradient>
	<path style="opacity:0.95;fill:url(#SVGID_00000115491775501486183430000003579239219587445641_);" d="M2526.977,1526.739h-583.657
		c-38.171,0-69.114-30.943-69.114-69.114V748.523c0-38.171,30.943-69.114,69.114-69.114h583.657
		c38.17,0,69.113,30.943,69.113,69.114v709.102C2596.09,1495.796,2565.146,1526.739,2526.977,1526.739z"/>
	<g>
		<rect x="2201.516" y="1179.28" style="fill:#4598E6;" width="57.254" height="10.604"/>
	</g>
	<g>
		<rect x="1984.146" y="1276.446" style="fill:#96BFE6;" width="333.158" height="20.53"/>
		<rect x="1984.146" y="1375.013" style="fill:#96BFE6;" width="269.408" height="20.53"/>
		<rect x="1984.146" y="1325.729" style="fill:#96BFE6;" width="157.938" height="20.53"/>
	</g>
	<g>
		<path style="fill:#4598E6;" d="M2404.465,763.907v10.369h61.051v57.298h10.369v-67.667H2404.465z M1989.881,831.574h10.369
			v-57.298h61.051v-10.369h-71.42V831.574z M2465.516,1127.228v57.318h-61.051v10.369h71.42v-67.688H2465.516z M2000.25,1127.228
			h-10.369v67.688h71.42v-10.369h-61.051V1127.228z"/>
	</g>
	<g>
		<g>
			<path style="fill:#4598E6;" d="M2443.562,1397.051c-33.666,0-61.056-27.39-61.056-61.056s27.39-61.057,61.056-61.057
				s61.056,27.391,61.056,61.057S2477.228,1397.051,2443.562,1397.051z M2443.562,1286.756c-27.15,0-49.239,22.088-49.239,49.239
				c0,27.15,22.089,49.238,49.239,49.238s49.239-22.088,49.239-49.238C2492.801,1308.844,2470.712,1286.756,2443.562,1286.756z"/>
		</g>
		<g>
			<polygon style="fill:#4598E6;" points="2439.668,1360.025 2411.93,1332.286 2420.285,1323.932 2439.668,1343.313 
				2466.838,1316.143 2475.194,1324.498 			"/>
		</g>
	</g>
	<ellipse style="opacity:0.95;fill:#FFFFFF;" cx="1489.56" cy="1873.218" rx="990.718" ry="46.368"/>
	
		<linearGradient id="SVGID_00000154391882616653375980000011429154072506549925_" gradientUnits="userSpaceOnUse" x1="2033.0063" y1="701.4037" x2="2033.0063" y2="384.8238">
		<stop  offset="0" style="stop-color:#D1D7E0"/>
		<stop  offset="1" style="stop-color:#EBEBFF"/>
	</linearGradient>
	<path style="opacity:0.95;fill:url(#SVGID_00000154391882616653375980000011429154072506549925_);" d="M2178.535,650.161h-291.059
		c-26.638,0-48.232-21.595-48.232-48.232v-252.55c0-26.638,21.595-48.232,48.232-48.232h291.059
		c26.639,0,48.233,21.595,48.233,48.232v252.55C2226.769,628.566,2205.174,650.161,2178.535,650.161z"/>
	<g>
		<g>
			<rect x="2016.168" y="584.15" style="fill:#4598E6;" width="30.734" height="5.693"/>
		</g>
		<g>
			<g>
				<g>
					<g>
						<path style="fill:#344052;" d="M2052.043,367.778c0,0,18.284,10.04,12.479,34.729c-5.806,24.689-8.013,27.949-3.296,37.926
							c4.717,9.978,8.863,51.783,3.832,59.432c-5.03,7.648-56.034-37.307-61.701-73.27c-5.668-35.964,7.091-51.236,11.614-56.938
							C2019.496,363.957,2035.914,358.611,2052.043,367.778z"/>
					</g>
				</g>
			</g>
			<g>
				<path style="fill:#EEA886;" d="M2086.375,571.835h-19.577c-0.946-9.656-1.821-16.378-1.642-17.372
					c0.288-1.642-19.48-53.495-21.326-57.784c-1.856-4.277-9.105-15.778-10.052-26.609c-0.958-10.831,13.167-15.204,13.167-15.204
					c19.063,3.415,25.52,29.784,25.52,29.784s8.004,53.472,12.053,68.519C2085.561,557.026,2086.123,563.844,2086.375,571.835z"/>
			</g>
			<path style="fill:#3480B5;" d="M2076.521,497.528l-29.151,12.29c0,0-26.797-66.495-4.338-59.071
				C2065.426,458.149,2075.5,472.065,2076.521,497.528z"/>
			<g>
				<path style="fill:#3480B5;" d="M2070.033,528.836c-0.852,6.602-4.338,29.988-3.559,36.302c0.132,1.042,0.563,3.439,1.21,6.697
					h-70.292c1.869-6.673,3.57-12.58,4.601-16.019c3.415-11.321,0.144-14.352-1.581-23.41c-0.671-3.547-3.031-10.28-5.607-17.888
					c-0.862-2.54-1.749-5.188-2.6-7.848c-3.092-9.585-4.529-19.385-5.416-25.088c-4.24-27.041,16.559-29.641,16.559-29.641
					c7.727-1.426,21.229-5.596,21.229-5.596l21.147,4.397c0,0,2.013,0.755,4.948,2.924c0,0,0.012,0,0.012,0.012
					c1.414,1.042,3.043,2.408,4.757,4.169c2.312,2.372,6.913,9.165,11.501,16.63c1.402,2.288,2.816,4.637,4.146,6.948
					c4.301,7.44,7.355,13.443,7.26,20.212C2078.264,508.301,2070.884,522.234,2070.033,528.836z"/>
			</g>
			<path style="fill:#EEA886;" d="M2045.725,450.751c0,0,13.248,22.643,8.321,24.333s-30.894-4.026-41.036-25.418
				C2013.01,449.666,2030.054,441.919,2045.725,450.751z"/>
			<path style="fill:#EEA886;" d="M2043.827,461.091c0,0-11.767,4.98-22.423-11.412c0,0,2.863-18.615-3.19-29.383
				c-6.054-10.765,26.459,12.907,26.459,12.907s-0.526,2.22-1.071,5.496c-0.279,1.678-0.566,3.628-0.785,5.698
				c-0.183,1.725-0.323,3.537-0.385,5.342C2042.296,453.926,2042.596,458.082,2043.827,461.091z"/>
			<path style="fill:#393D63;" d="M2014.607,486.451c-2.424,12.46-19.805,28.069-19.805,28.069
				c-0.859-2.547-1.745-5.189-2.596-7.844C2004.198,499.025,2014.607,486.451,2014.607,486.451z"/>
			<g>
				<path style="fill:#EEA886;" d="M2010.248,496.367c-1.101,4.541-6.17,50.536-5.619,52.105c0.324,0.898,2.779,11.537,5.236,23.362
					h-22.693c-2.324-7.62-3.702-13.945-3.366-17.528c1.449-15.515-3.81-64.972-3.81-64.972s-4.708-29.917,20.116-33.654
					c0,0,14.665,1.929,15.552,12.76C2016.551,479.282,2011.351,491.839,2010.248,496.367z"/>
			</g>
			<path style="fill:#3480B5;" d="M1978.164,502.722l30.809,7.195c0,0,24.439-47.45,2.428-56.114
				C1988.2,444.671,1972.603,476.837,1978.164,502.722z"/>
			<g>
				<g>
					<g>
						<path style="fill:#EEA987;" d="M2049.197,370.412c0,0,26.774,9.826,9.804,56.03c-16.97,46.203-51.614-7.888-46.381-36.279
							C2017.854,361.771,2049.197,370.412,2049.197,370.412z"/>
					</g>
				</g>
			</g>
			<g>
				<g>
					<g>
						<path style="fill:#344052;" d="M2063.105,398.497c0,0-14.131,12.614-36.809,13.203c0,0-5.301,12.919-6.157,16.885
							c0,0-22.405-38.47,3.354-57.901C2049.254,351.252,2072.617,390.438,2063.105,398.497z"/>
					</g>
				</g>
			</g>
			<g>
				<g>
					<g>
						<path style="fill:#EEA987;" d="M2029.359,414.472c-0.014-3.422-1.75-11.29-6.926-9.355s-0.54,18.008,2.871,17.194
							C2025.305,422.311,2029.391,422.566,2029.359,414.472z"/>
					</g>
				</g>
			</g>
			<path style="fill:#A77860;" d="M2042.463,448.949c-12.581-3.48-17.447-15.473-17.596-15.874
				c10.231,13.222,17.949,11.322,17.949,11.322C2042.634,446.122,2042.62,447.2,2042.463,448.949z"/>
		</g>
		<g>
			<path style="fill:#4598E6;" d="M2125.115,364.307v5.566h32.773v30.759h5.566v-36.325H2125.115z M1902.558,400.632h5.566v-30.759
				h32.773v-5.566h-38.34V400.632z M2157.889,559.345v30.771h-32.773v5.565h38.34v-36.336H2157.889z M1908.124,559.345h-5.566
				v36.336h38.34v-5.565h-32.773V559.345z"/>
		</g>
	</g>
	<g>
		<rect x="1503.178" y="844.91" style="fill:#4598E6;" width="41.053" height="7.603"/>
	</g>
	<g>
		<path style="fill:#4598E6;" d="M1646.733,551.265v7.435h43.776v41.085h7.434v-48.52H1646.733z M1349.464,599.784h7.435v-41.085
			h43.776v-7.435h-51.21V599.784z M1690.51,811.777v41.099h-43.776v7.436h51.21v-48.534H1690.51z M1356.898,811.777h-7.435v48.534
			h51.21v-7.436h-43.776V811.777z"/>
	</g>
	<g style="opacity:0.95;">
		
			<linearGradient id="SVGID_00000144334335364239508190000015612763231631339965_" gradientUnits="userSpaceOnUse" x1="2251.946" y1="520.8486" x2="305.5751" y2="1193.3947">
			<stop  offset="0" style="stop-color:#D1D7E0"/>
			<stop  offset="1" style="stop-color:#EBEBFF"/>
		</linearGradient>
		<polygon style="fill:url(#SVGID_00000144334335364239508190000015612763231631339965_);" points="913.795,1111.156 
			-0.001,1184.516 -0.001,1171.058 912.724,1097.81 		"/>
	</g>
	<g>
		<path style="fill:#FFCB55;" d="M168.163,440.381c-3.684,3.66-7.975,5.487-12.872,5.487c-3.035,0-5.885-0.602-8.55-1.809
			c-2.665-1.203-4.984-2.859-6.957-4.97c-1.972-2.108-3.533-4.594-4.68-7.458c-1.149-2.861-1.724-5.95-1.724-9.264
			c0-3.142,0.574-6.103,1.724-8.878c1.147-2.776,2.729-5.209,4.745-7.297c2.016-2.087,4.389-3.744,7.12-4.97
			c2.729-1.228,5.698-1.841,8.907-1.841c4.333,0,8.05,0.903,11.15,2.71c3.098,1.811,5.429,4.241,6.989,7.299l-6.696,4.906
			c-1.17-2.283-2.807-4.026-4.909-5.232c-2.104-1.205-4.389-1.809-6.859-1.809c-1.95,0-3.738,0.411-5.363,1.228
			c-1.625,0.819-3.013,1.936-4.162,3.357c-1.148,1.42-2.038,3.059-2.665,4.906c-0.63,1.852-0.943,3.811-0.943,5.878
			c0,2.151,0.347,4.164,1.04,6.034c0.693,1.875,1.646,3.498,2.861,4.877c1.212,1.376,2.654,2.463,4.323,3.259
			c1.669,0.797,3.478,1.194,5.429,1.194c4.464,0,8.495-2.086,12.093-6.262v-3.23h-9.296v-6.52h16.709v23.565h-7.413V440.381z"/>
		<path style="fill:#FFCB55;" d="M215.298,437.732v7.813h-32.052v-45.841h31.467v7.811h-22.495v11.041h19.439v7.232h-19.439v11.942
			H215.298z"/>
		<path style="fill:#FFCB55;" d="M256.844,407.517h-14.759v38.029h-8.907v-38.029h-14.759v-7.811h38.424V407.517z"/>
		<path style="fill:#FFCB55;" d="M313.99,445.546v-30.345l-11.898,22.597h-4.876l-11.898-22.597v30.345h-8.972v-45.841h9.622
			l13.653,26.085l13.784-26.085h9.557v45.841H313.99z"/>
		<path style="fill:#FFCB55;" d="M352.283,445.868c-3.381,0-6.448-0.654-9.2-1.97c-2.753-1.311-5.116-3.055-7.086-5.228
			c-1.974-2.175-3.501-4.659-4.585-7.456c-1.083-2.8-1.625-5.66-1.625-8.587c0-3.058,0.574-5.983,1.723-8.783
			c1.147-2.796,2.729-5.27,4.746-7.423c2.016-2.154,4.41-3.863,7.185-5.134c2.772-1.268,5.785-1.904,9.036-1.904
			c3.337,0,6.382,0.679,9.135,2.033c2.751,1.356,5.103,3.132,7.053,5.327c1.951,2.194,3.467,4.69,4.552,7.489
			c1.083,2.798,1.625,5.639,1.625,8.521c0,3.059-0.564,5.974-1.69,8.749c-1.128,2.777-2.688,5.229-4.682,7.361
			c-1.994,2.129-4.377,3.831-7.15,5.1C358.546,445.233,355.534,445.868,352.283,445.868z M338.89,422.627
			c0,1.978,0.302,3.895,0.91,5.746c0.606,1.85,1.484,3.485,2.634,4.906c1.147,1.421,2.556,2.561,4.226,3.423
			c1.668,0.859,3.564,1.289,5.689,1.289c2.166,0,4.084-0.44,5.753-1.323c1.668-0.881,3.077-2.054,4.227-3.52
			c1.147-1.462,2.015-3.107,2.6-4.936c0.586-1.829,0.878-3.692,0.878-5.585c0-1.979-0.315-3.895-0.943-5.747
			c-0.629-1.852-1.518-3.485-2.666-4.906c-1.149-1.421-2.558-2.553-4.227-3.391c-1.668-0.839-3.543-1.259-5.623-1.259
			c-2.168,0-4.096,0.442-5.787,1.325c-1.69,0.881-3.1,2.042-4.227,3.485c-1.128,1.443-1.982,3.077-2.567,4.907
			C339.183,418.871,338.89,420.731,338.89,422.627z"/>
		<path style="fill:#FFCB55;" d="M381.734,445.546v-45.841h20.416c2.123,0,4.084,0.442,5.884,1.323
			c1.797,0.883,3.348,2.047,4.648,3.486c1.3,1.443,2.318,3.079,3.055,4.906c0.737,1.831,1.106,3.672,1.106,5.522
			c0,2.969-0.748,5.671-2.243,8.104c-1.496,2.431-3.523,4.186-6.079,5.261l10.532,17.238h-10.077l-9.427-15.366h-8.843v15.366
			H381.734z M390.706,422.368h11.248c0.823,0,1.593-0.195,2.308-0.581c0.715-0.388,1.332-0.915,1.852-1.582
			c0.521-0.667,0.933-1.454,1.235-2.357c0.303-0.903,0.456-1.87,0.456-2.905c0-1.076-0.174-2.065-0.52-2.969
			c-0.348-0.905-0.813-1.69-1.398-2.357c-0.585-0.667-1.257-1.185-2.016-1.55c-0.759-0.366-1.528-0.55-2.307-0.55h-10.858V422.368z"
			/>
		<path style="fill:#FFCB55;" d="M457.021,437.732v7.813h-32.052v-45.841h31.467v7.811H433.94v11.041h19.44v7.232h-19.44v11.942
			H457.021z"/>
	</g>
	
		<linearGradient id="SVGID_00000165210469587326554140000015058330389148774318_" gradientUnits="userSpaceOnUse" x1="-165.0193" y1="1309.2485" x2="1374.5002" y2="54.8233">
		<stop  offset="0.0052" style="stop-color:#1A2257"/>
		<stop  offset="1" style="stop-color:#5E60F2"/>
	</linearGradient>
	<path style="fill:url(#SVGID_00000165210469587326554140000015058330389148774318_);" d="M804.258,876.704
		c0,5.602-0.134,11.158-0.402,16.693c-252.731,78.271-531.932-20.51-685.771-92.375c34.526-155.379,173.167-271.545,338.946-271.545
		C648.789,529.477,804.258,684.923,804.258,876.704z"/>
	
		<linearGradient id="SVGID_00000033346142072018992350000011074135123521581755_" gradientUnits="userSpaceOnUse" x1="-131.7784" y1="864.7383" x2="279.452" y2="2046.594">
		<stop  offset="0.0052" style="stop-color:#1A2257"/>
		<stop  offset="1" style="stop-color:#5E60F2"/>
	</linearGradient>
	<path style="fill:url(#SVGID_00000033346142072018992350000011074135123521581755_);" d="M461.183,1877.563
		c0,42.806-7.008,83.983-19.93,122.438H-0.001v-498.745c24.907-5.089,50.707-7.745,77.109-7.745
		C289.221,1493.511,461.183,1665.45,461.183,1877.563z"/>
	<g>
		<g>
			<path style="fill:#163342;" d="M1524.99,420.232c0,0,25.857-16.592,49.178,12.901c23.319,29.494,14.929,57.845,10.057,84.322
				c-4.831,26.256-28.344,86.34-18.354,112.808c9.991,26.469-2.776,40.253-2.776,40.253s-80.189,20.532-70.841-100.08
				C1501.604,449.825,1524.99,420.232,1524.99,420.232z"/>
		</g>
		<g>
			<path style="fill:#1D3B54;" d="M1476.162,687.566c0,0-23.479,62.224-45.663,120.206h-60.17
				c9.195-28.389,18.524-58.652,19.551-64.209c1.964-10.803,2.856-42.807,15.176-65.259c12.342-22.452,41.712-31.335,41.712-31.335
				C1495.244,649.157,1476.162,687.566,1476.162,687.566z"/>
		</g>
		<g>
			<path style="fill:#EDDAD3;" d="M1627.01,748.316c0,0-9.373,30.51-18.434,59.456h-196.333c-0.826-2.545-1.853-5.223-3.08-8.057
				c-14.373-33.276-21.358-61.62-14.373-80.524c6.986-18.903,46.824-70.659,57.113-72.712c10.266-2.054,39.838-16.024,39.838-16.024
				c19.327-2.88,46.801-1.451,56.264,1.852c9.44,3.281,62.066,8.615,81.372,23.613
				C1651.605,673.194,1627.01,748.316,1627.01,748.316z"/>
		</g>
		<g>
			<path style="fill:#D6C5BE;" d="M1482.297,696.396l-17.975-21.049l15.608-55.415
				C1479.931,619.932,1485.174,650.791,1482.297,696.396z"/>
		</g>
		<g>
			<path style="fill:#EEA886;" d="M1477.628,596.319c0,0,5.901,54.267,4.669,71.933c0,0,30.736,30.803,65.698-35.955
				c0,0-14.711-27.516-3.638-65.009C1555.43,529.794,1477.628,596.319,1477.628,596.319z"/>
		</g>
		<g>
			<polygon style="fill:#EEA886;" points="1482.297,668.252 1482.297,696.396 1517.672,669.962 			"/>
		</g>
		<g>
			<polygon style="fill:#D6C5BE;" points="1482.297,696.396 1496.985,678.216 1546.46,628.906 1562.465,644.32 			"/>
		</g>
		<g>
			<path style="fill:#1D3B54;" d="M1647.633,698.525c0,0-8.481,31.445-31.424,109.247h-102.174
				c-3.168-40.932-4.932-73.538-4.218-83.403c1.986-27.741,43.521-90.745,43.521-90.745s25.867,3.125,53.653,9.15
				C1638.683,649.648,1647.633,698.525,1647.633,698.525z"/>
		</g>
		<g>
			<path style="fill:#1D3B54;" d="M1469.801,640.185c-25.309,30.285-34.303,96.839-35.731,167.587h-22.72
				c-26.357-55.148-19.305-80.167-19.305-80.167c13.771-47.136,54.724-80.636,54.724-80.636L1469.801,640.185z"/>
		</g>
		<g>
			<polygon style="fill:#FAE6DE;" points="1464.322,675.347 1441.674,681.606 1479.931,619.932 			"/>
		</g>
		<g>
			<polygon style="fill:#FAE6DE;" points="1496.985,678.216 1517.672,705.332 1559.937,634.499 1546.46,628.906 			"/>
		</g>
		<g>
			<path style="fill:#A77860;" d="M1478.845,608.262l1.086,10.688c0,0,24.361,4.766,56.33-34.226
				C1536.261,584.725,1513.602,612.364,1478.845,608.262z"/>
		</g>
		<g>
			<path style="fill:#EEA987;" d="M1485.046,609.052c-9.624-0.354-36.489-3.495-49.744-65.389
				c-16.193-75.614,19.587-114.831,50.224-122.099c30.636-7.269,58.893,3.383,74.581,42.903c0,0,11.466,30.814-7.144,85.705
				C1534.354,605.063,1495.352,609.431,1485.046,609.052z"/>
		</g>
		<g>
			<path style="fill:#163342;" d="M1509.627,470.605c0,0-41.144,2.559-79.387,60.013c0,0-17.903-69.129,28.887-100.679
				c46.789-31.55,79.557-4.425,90.973,9.332c0,0,16.375,3.762,16.892,34.826c0.517,31.064,21.403,77.944-24.435,100.176
				c0,0,4.368-35.46,0.331-43.569S1524.845,528.068,1509.627,470.605z"/>
		</g>
		<g>
			<path style="fill:#EEA987;" d="M1540.635,516.93c2.075-5.376,7.729-7.544,10.842-1.778c3.112,5.766-0.594,28.123-8.897,30.568
				C1534.276,548.166,1536.431,527.826,1540.635,516.93z"/>
		</g>
		<path style="fill:#1D3B54;" d="M1687.27,807.773h-66.888c-7.03-17.229-13.569-32.495-17.944-43.476
			c-14.484-36.446-72.132-104.985-35.396-127.839c0,0,48.141-2.946,72.267,25.131c24.148,28.098,22.831,61.441,28.97,75.926
			C1672.83,748.25,1681.713,785.231,1687.27,807.773z"/>
	</g>
	<g>
		<g>
			<path style="fill:#E65353;" d="M2462.856,1087.596h-74.524c-2.592-17.95-4.528-31.043-4.528-31.043s-1.091,12.084-2.755,31.043
				h-313.346c-1.445-13.612-2.674-21.96-3.301-22.286c-0.9-0.464-4.229,8.592-8.456,22.286h-84.399
				c22.014-87.646,53.111-192.585,72.369-200.005c32.625-12.548,165.607-53.547,165.607-53.547h75.915
				c0,0,134.892,38.489,147.438,80.307C2441.824,944.193,2453.527,1009.907,2462.856,1087.596z"/>
		</g>
		<g>
			<path style="fill:#B84343;" d="M2382.906,1030.574l-2.451-0.458c0.127-0.677,12.434-68.098-5.04-106.322l2.269-1.036
				C2395.486,961.702,2383.035,1029.891,2382.906,1030.574z"/>
		</g>
		<g>
			<path style="fill:#B84343;" d="M2382.436,1017.043c-0.071-0.525-7.262-52.778-23.029-72.352l1.941-1.564
				c16.205,20.115,23.267,71.41,23.559,73.583L2382.436,1017.043z"/>
		</g>
		<g>
			<path style="fill:#EEA987;" d="M2250.984,587.796c0,0,70.878,11.166,60.086,122.06
				c-10.793,110.895-73.348,101.805-77.529,101.692c-4.182-0.112-62.799,2.022-67.369-133.373
				C2166.172,678.176,2164.178,578.057,2250.984,587.796z"/>
		</g>
		<g>
			<path style="fill:#EEA987;" d="M2284.069,778.887c0,0-1.942,45.611,2.471,55.485c4.413,9.874-58.489,41.591-96.854,6.246
				c0,0,9.266-49.57,6.689-67.139S2284.069,778.887,2284.069,778.887z"/>
		</g>
		<g>
			<path style="fill:#EEA987;" d="M2312.166,678.532c0,0,7.762-8.29,10.608,0.103c2.847,8.392-12.041,45.892-11.069,47.575
				c0,0-1.416,3.255-3.279,1.463C2306.563,725.881,2312.166,678.532,2312.166,678.532z"/>
		</g>
		<g>
			<path style="fill:#EEA987;" d="M2166.973,677.13c0,0-7.6-8.438-10.607-0.103c-3.01,8.336,11.151,46.116,10.146,47.779
				c0,0,1.354,3.282,3.251,1.526C2171.66,724.578,2166.973,677.13,2166.973,677.13z"/>
		</g>
		<g>
			<path style="fill:#424242;" d="M2312.132,695.541l-10.147,13.565c0,0,0.288-29.74-1.34-34.403
				c-1.628-4.663,1.924-20.903,0.563-24.262c-1.362-3.359-48.479,9.142-125.752,1.454c0,0,8.596,26.793,3.559,28.696
				c-5.038,1.903-2.568,34.83-2.568,34.83l-8.343-9.413c0,0-9.421-56.249-8.505-65.64c1.219-12.496-3.121-70.858,105.609-60.842
				c12.449,1.147,24.402,5.604,34.344,13.183c11.172,8.516,22.66,21.807,21.609,40.063
				C2319.771,656.903,2312.132,695.541,2312.132,695.541z"/>
		</g>
		<g>
			<path style="fill:#EEA987;" d="M2286.54,834.372c0,0,15.99,3.412-50.929,67.542c0,0-47.463-52.503-45.926-61.296
				C2191.223,831.826,2286.54,834.372,2286.54,834.372z"/>
		</g>
		<g>
			<path style="fill:#4F544F;" d="M2057.338,1087.596h-88.109c13.693-52.348,30.197-107.504,40.426-142.911
				c17.623-60.885,41.654-62.577,41.654-62.577l13.094,183.202C2064.402,1065.31,2061.457,1074.202,2057.338,1087.596z"/>
		</g>
		<g>
			<polygon style="fill:#C24646;" points="2235.611,901.914 2253.539,937.208 2310.074,848.247 2286.54,834.372 			"/>
		</g>
		<g>
			<path style="fill:#4F544F;" d="M2465.012,1087.596h-77.252c-1.992-15.985-3.301-26.515-3.301-26.515s-0.164,10.175-0.491,26.515
				h-110.204c0.136-4.91,0.408-9.493,0.846-13.749c9.22-87.754,11.92-239.476,11.92-239.476s117.761,15.821,146.348,79.979
				C2449.381,951.423,2459.146,1025.51,2465.012,1087.596z"/>
		</g>
		<g>
			<polygon style="fill:#C24646;" points="2235.611,901.914 2210.306,937.208 2173.724,871.804 2189.686,840.618 			"/>
		</g>
		<g>
			<path style="fill:#4F544F;" d="M2189.691,840.618c0,0-13.611,58.212-20.268,142.583c-1.883,23.978-10.502,61.84-22.014,104.395
				h-80.717l-2.291-22.286l-13.094-183.202L2189.691,840.618z"/>
		</g>
		<g>
			<polygon style="fill:#4F544F;" points="2283.799,811.771 2323.137,834.372 2282.008,968.562 			"/>
		</g>
		<g>
			<polygon style="fill:#4F544F;" points="2193.488,817.261 2189.686,840.618 2163.746,963.259 2150.443,834.052 			"/>
		</g>
		<path style="fill:#A77860;" d="M2201.602,797.202c0,0,15.05,16.479,37.577,14.683c22.526-1.797,38.255-15.501,38.255-15.501
			s-9.633,23.472-39.211,24.924C2208.645,822.759,2201.602,797.202,2201.602,797.202z"/>
	</g>
	<g>
		<path style="fill:#754836;" d="M1409.485,879.902c-16.188,6.488-6.952,39.856-8.556,100.673c-1.604,60.817-46.4,71.84-46.4,71.84
			s19.735-23.288,23.746-44.605c4.01-21.318-40.271-75.191-20.926-117.48c14.946-32.672,54.148-11.65,54.148-11.65L1409.485,879.902
			z"/>
		<path style="fill:#EEA886;" d="M1667.186,1205.386c0,0-7.969-2.762-12.661-1.893s8.878-23.328,8.878-23.328L1667.186,1205.386z"/>
		<g>
			<path style="fill:#EEA886;" d="M1663.402,1180.165c0,0,12.549-11.03,14.518-12.655c1.969-1.624,9.06-2.322,17.271-2.414
				c8.212-0.091,19.347,3.461,20.143,4.632c0.797,1.172,2.146,1.985,2.101,5.62c-0.043,3.634-2.076,6.683-2.076,6.683
				s2.053,4.505-0.739,8.072c0,0,1.737,4.326-2.095,7.86c0,0,1.582,4.271-1.42,6.602c0,0-7.106,0.71-9.66,1.732
				s-17.436,1.488-31.776-0.263C1669.669,1206.034,1653.764,1204.727,1663.402,1180.165z"/>
		</g>
		<g>
			<path style="fill:#CF8C6C;" d="M1687.645,1183.53c0,0-3.201,7.758-5.203,9.48c-2.001,1.725,12.705,11.434,12.705,11.434
				S1696.971,1187.674,1687.645,1183.53z"/>
		</g>
		<g>
			<path style="fill:#DB9C7C;" d="M1713.18,1169.669c0,0-20.807,0.741-21.102,4.107c-0.295,3.365,1.639,4.781,1.639,4.781
				l-8.426,4.189c0,0-4.014,5.925,3.611,8.564c0,0-4.321,5.144,3.345,6.815c0,0-1.337,4.666,2.077,6.067
				c3.414,1.4,16.781,0.37,16.781,0.37s3.665-1.235,2.359-6.351c0,0,3.357-3.31,1.58-8.003c0,0,2.729-3.084,0.765-8.135
				c0,0,5.05-7.255-0.476-12.349C1715.334,1169.728,1714.057,1169.632,1713.18,1169.669z"/>
		</g>
		<g>
			<path style="fill:#EEA886;" d="M1692.006,1173.576c0,0,3.428-19.354,2.359-27.808c-0.242-1.911-0.176-2.631-2.042-3.128
				c-1.866-0.496-4.972,6.142-7.033,11.986c-2.063,5.845-7.579,13.058-7.579,13.058S1677.529,1173.709,1692.006,1173.576z"/>
		</g>
		<g>
			<path style="fill:#162D40;" d="M1370.304,1800.666c0,0,22.439,32.81,30.271,39.771c0,0,15.656,8.127,16.141,14.617
				c0.917,12.272,2.017,23.714-18.578,24.294c-20.595,0.58-33.925-4.278-37.696-16.752c-3.771-12.473-12.763-23.206-12.763-23.206
				v26.106h-4.641c0,0-1.161-25.236-1.451-29.877c-0.29-4.642-3.333-22.485,6.456-30.388S1370.304,1800.666,1370.304,1800.666z"/>
		</g>
		<g>
			<path style="fill:#EEA886;" d="M1403.562,1842.123c0,0-11.137,3.142-24.379-0.194c-13.243-3.336-25.961-35.038-29.827-37.68
				l-3.431-12.793h25.816c0,0,0.212,9.465,4.385,17.568S1403.562,1842.123,1403.562,1842.123z"/>
		</g>
		<g>
			<path style="fill:#162D40;" d="M1515.98,1788.41c0,0,3.365,7.954,9.718,16.244c4.658,6.078,19.146,31.038,25.526,32.778
				c6.382,1.74,26.107,5.222,27.848,16.244c1.74,11.023,2.61,18.855-16.824,19.726c-19.436,0.87-32.199,2.03-41.48-11.604
				c-9.283-13.634-24.076-23.496-24.076-23.496v35.571h-7.543c0,0-3.48-37.021-5.512-39.632
				c-2.029-2.611-7.251-31.038,10.733-45.832C1512.355,1773.616,1515.98,1788.41,1515.98,1788.41z"/>
		</g>
		<g>
			<path style="fill:#EEA886;" d="M1551.225,1837.433c0,0-17.404,4.352-24.076,0s-29.354-42.688-36.867-44.984
				c0,0,7.279-14.771,25.699-4.038C1515.98,1788.41,1546.293,1831.051,1551.225,1837.433z"/>
		</g>
		<g>
			<path style="fill:#1D3B54;" d="M1360.428,1255.687c0,0-24.541,31.908-31.198,69.764c-6.656,37.854,3.932,164.907,3.642,183.617
				s-17.333,78.389-13.852,113.633s22.531,180.893,22.531,180.893l42.52-0.763c0,0-8.52-158.737-6.344-173.531
				c2.176-14.794,9.098-77.735,9.969-83.827c0.87-6.091,48.442-167.177,48.442-194.47
				C1436.138,1323.71,1419.604,1211.16,1360.428,1255.687z"/>
		</g>
		<g>
			<path style="fill:#1D3B54;" d="M1483.71,1268.16c0,0,40.32,153.885,45.106,175.206c4.787,21.32,14.359,49.167,13.924,53.083
				s-5.076,69.618-5.076,69.618l-11.458,223.648h-42.496c0,0-13.634-142.282-15.81-171c-2.176-28.717,15.664-73.099,11.313-85.282
				c-4.352-12.183-70.053-152.724-70.053-152.724S1359.413,1223.489,1483.71,1268.16z"/>
		</g>
		<g>
			<path style="fill:#EB4747;" d="M1472.365,1037.455c0,0,24.924,2.947,35.449,17.37s13.993,36.465,16.324,43.76
				c2.33,7.295,34.618,76.071,36.748,77.79c2.129,1.719,31.601,0.563,49.32,1.063c24.889,0.704,54.545,0.096,54.545,0.096
				l-3.623,35.622c0,0-118.375,2.779-126.553-6.511c-18.059-20.513-58.841-92.006-58.841-92.006
				S1433.223,1056.676,1472.365,1037.455z"/>
		</g>
		<g>
			<path style="fill:#EDDAD3;" d="M1443.1,1026.527c0,0,20.885,9.863,28.137,11.313s35.39,38,40.32,51.343
				c4.932,13.344,0,33.359-10.152,56.855c-10.152,23.496-0.58,31.327-5.221,54.823c-4.642,23.497-8.703,73.244-7.832,86.298
				c0.869,13.054-117.327,15.517-144.304-8.27c0,0,27.113-40.608,30.594-46.409c3.481-5.802,0.58-37.42-2.61-45.542
				c-3.191-8.122-36.579-73.468-36.579-73.468s-5.223-56.771,10.472-68.959c13.633-10.588,50.791-14.363,57.462-16.684
				C1410.058,1025.509,1429.466,1024.497,1443.1,1026.527z"/>
		</g>
		<g>
			<path style="fill:#D6C5BE;" d="M1449.771,1073.085l12.69-14.861l-11.021-39.125
				C1451.441,1019.099,1447.74,1040.887,1449.771,1073.085z"/>
		</g>
		<g>
			<path style="fill:#EEA886;" d="M1453.068,1002.428c0,0-4.168,38.314-3.297,50.787c0,0-21.701,21.747-46.385-25.386
				c0,0,10.386-19.428,2.568-45.898C1398.138,955.459,1453.068,1002.428,1453.068,1002.428z"/>
		</g>
		<g>
			<polygon style="fill:#EEA886;" points="1449.771,1053.215 1449.771,1073.085 1424.795,1054.422 			"/>
		</g>
		<g>
			<polygon style="fill:#D6C5BE;" points="1449.771,1073.085 1439.4,1060.249 1404.47,1025.436 1393.17,1036.317 			"/>
		</g>
		<g>
			<path style="fill:#EB4747;" d="M1409.597,1305.958c-9.844,47.082-80.985-5.311-80.985-5.311s46.158-77.509,27.813-139.468
				c-0.146-0.493-0.292-0.98-0.438-1.467c-1.174-3.921-2.342-7.646-3.51-11.185c-16.843-51.239-31.97-63.21-31.97-63.21
				s21.39-47.034,41.229-50.085c19.84-3.059,37.886-6.465,37.886-6.465s29.314,44.482,30.711,64.064
				C1431.736,1112.408,1419.439,1258.876,1409.597,1305.958z"/>
		</g>
		<g>
			<path style="fill:#EB4747;" d="M1515.992,1094.655c0,0-4.725,44.422-13.718,66.467c0,0-3.771,46.992-3.19,63.527
				c0.58,16.534,4.496,79.045,4.496,79.045l-20.37,11.931c-4.104,2.404-9.185-0.929-8.611-5.65
				c5.769-47.58,24.536-228.065-16.003-276.579l16.267,4.796C1474.862,1038.191,1508.349,1069.418,1515.992,1094.655z"/>
		</g>
		<g>
			<polygon style="fill:#FAE6DE;" points="1462.462,1058.224 1478.452,1062.642 1451.441,1019.099 			"/>
		</g>
		<g>
			<polygon style="fill:#FAE6DE;" points="1439.4,1060.249 1424.795,1079.394 1394.938,1029.632 1404.47,1025.436 			"/>
		</g>
		<path style="fill:#EB4747;" d="M1509.58,1166.554c0,0,9.461-29.914,3.906-51.045c0,0,0.757,18.655-10.412,43.267L1509.58,1166.554
			z"/>
		<path style="fill:#EEA886;" d="M1437.973,878.757c15.284-1.466,49.624,4.633,56.781,44.983c0,0-0.708,11.003-2.957,19.727
			s6.654,33.715,4.703,35.06c-1.951,1.346-10.184,3.337-10.184,3.337s-7.627,28.122-17.361,28.345
			c-9.736,0.223-46.906-5.636-65.874-39.275C1384.113,937.293,1376.257,884.678,1437.973,878.757z"/>
		<path style="fill:#754836;" d="M1494.754,923.739c0,0-24.065,18.13-48.583,22.721c-24.519,4.591-37.785,47.236-37.785,47.236
			s-41.188-61.862-12.616-101.369C1424.254,852.94,1497.886,876.198,1494.754,923.739z"/>
		<path style="fill:#EEA886;" d="M1435.856,945.812c-0.361-4.773-6.017-11.69-13.536-4.791c-7.52,6.898,4.083,29.118,10.393,26.588
			C1439.023,965.079,1436.229,950.742,1435.856,945.812z"/>
		<path style="fill:#A77860;" d="M1453.121,1007.96c-0.556,2.977-1.123,6.467-1.591,10.148
			c-20.567-11.732-31.351-26.676-31.351-26.676C1432.08,1001.214,1453.121,1007.96,1453.121,1007.96z"/>
		<polygon style="fill:#524B49;" points="1472.039,1210.771 1385.468,1360.716 1289.228,1305.151 1372.039,1153.035 		"/>
		<g>
			<g>
				<g>
					<g>
						<g>
							<path style="fill:#EEA886;" d="M1429.114,1310.354c0,0-3.938,0.018-5.663-0.814c0,0-3.023-1.755-5.248-2.872
								c-0.707-0.353-1.33-0.644-1.754-0.789c-1.765-0.611-5.823-1.424-9.651-4.082c-3.824-2.652-17.381-18.348-17.381-18.348
								l6.402-9.735l4.695-9.97c0,0,28.463,1.839,32.313,3.899c0.375,0.204,0.738,0.418,1.064,0.646
								c3.091,2.061,4.524,4.894,6.023,6.159c0.548,0.469,5.68,5.492,5.501,7.631c-0.245,2.968-1.619,4.927-3.409,5.904
								c0,0-0.736,5.791-3.592,8.492c0,0-0.506,5.364-5.014,7.713C1433.402,1304.189,1432.277,1309.574,1429.114,1310.354z"/>
						</g>
					</g>
				</g>
			</g>
		</g>
		<g>
			<path style="fill:#EB4747;" d="M1372.874,1034.457c0,0-28.715-3.652-43.778,25.316c-15.064,28.97-14.989,41.331-17.003,55.476
				c-1.901,13.357-10.482,49.825-11.352,53.591c-0.869,3.767-20.305,48.674-11.393,64.37c8.959,15.778,99.952,62.217,99.373,65.693
				c-0.579,3.477,15.759-35.111,15.759-35.111s-36.819-20.521-42.849-26.841c-9.795-10.264-30.458-21.322-26.213-34.055
				c4.987-14.957,19.966-65.417,23.442-72.805C1362.337,1122.705,1395.035,1043.872,1372.874,1034.457z"/>
		</g>
		<path style="fill:#872929;" d="M1370.411,1099.833c-1.071,27.834-14.425,59.88-14.425,59.88c-1.174-3.921-2.342-7.646-3.51-11.185
			C1359.998,1127.507,1370.411,1099.833,1370.411,1099.833z"/>
	</g>
	<g>
		<g>
			<g>
				<g>
					<g>
						
							<linearGradient id="SVGID_00000005955415364183018640000000280245974827954079_" gradientUnits="userSpaceOnUse" x1="242.167" y1="1961.6179" x2="718.6626" y2="1961.6179">
							<stop  offset="0.0052" style="stop-color:#1A2257"/>
							<stop  offset="1" style="stop-color:#5E60F2"/>
						</linearGradient>
						<path style="fill:url(#SVGID_00000005955415364183018640000000280245974827954079_);" d="M242.167,2000.001h377.454
							c54.8-18.24,99.042-21.234,99.042-21.234S397.388,1840.683,242.167,2000.001z"/>
					</g>
				</g>
			</g>
			<g>
				<g>
					<g>
						
							<linearGradient id="SVGID_00000075120164038858727790000014488313407885239993_" gradientUnits="userSpaceOnUse" x1="29.5469" y1="1682.0741" x2="782.0903" y2="1682.0741">
							<stop  offset="0.0052" style="stop-color:#1A2257"/>
							<stop  offset="1" style="stop-color:#5E60F2"/>
						</linearGradient>
						<path style="fill:url(#SVGID_00000075120164038858727790000014488313407885239993_);" d="M29.547,2000.001h364.138
							c158.766-106.212,310.165-294.525,388.406-625.058c0,0-322.811-100.105-535.353,309.338
							C168.654,1834.734,93.447,1934.288,29.547,2000.001z"/>
					</g>
				</g>
			</g>
			<g>
				<g>
					<g>
						
							<linearGradient id="SVGID_00000109732744758637301500000007254400859070889110_" gradientUnits="userSpaceOnUse" x1="-5.000000e-04" y1="1614.4316" x2="379.4228" y2="1614.4316">
							<stop  offset="0.0052" style="stop-color:#1A2257"/>
							<stop  offset="1" style="stop-color:#5E60F2"/>
						</linearGradient>
						<path style="fill:url(#SVGID_00000109732744758637301500000007254400859070889110_);" d="M-0.001,1663.085v336.916h256.626
							c46.015-65.043,81.865-139.817,91.281-212.029c30.69-235.392-30.414-408.104,31.517-559.109
							C379.423,1228.862,109.639,1353.747-0.001,1663.085z"/>
					</g>
				</g>
			</g>
		</g>
	</g>
	<g>
		<g>
			<polygon style="fill:#292C47;" points="1950.654,1122.748 2043.064,1173.543 2135.864,1027.507 2023.624,988.519 			"/>
		</g>
		<g>
			<polygon style="fill:#FFFFFF;" points="1956.516,1118.36 2042.934,1165.863 2129.719,1029.294 2024.754,992.833 			"/>
		</g>
		<g>
			<path style="fill:#EEA886;" d="M1924.866,1092.82c0,0,16.085-7.692,23.144-11.714c7.06-4.021,25.221-9.539,26.688-10.851
				s53.834-4.542,57.01-7.281c3.176-2.74,6.265,6.423-7.308,9.396c-13.572,2.973-32.46,10.242-33.493,15.547
				c-1.033,5.304,13.942,6.561,15.457,10.93c1.517,4.369-0.426,3.39-2.571,4.327s-17.811-7.738-24.698-5.276
				c-6.889,2.462-17.418-0.947-22.697,0.86c-5.279,1.807-30.949,10.444-30.949,10.444L1924.866,1092.82z"/>
		</g>
		<g>
			<path style="fill:#EEA886;" d="M2047.568,1155.22c0,0,13.513-12.162,20.051-17.249c6.537-5.087,18.811-20.053,20.617-20.924
				c1.807-0.872,25.242-48.962,29.061-50.889s-3.613-8.404-11.699,3.228c-8.086,11.633-22.292,26.602-27.693,25.51
				c-5.4-1.093-0.754-15.692-4.281-18.822c-3.527-3.131-3.359-0.919-5.078,0.738s0.357,19.797-4.646,25.329
				s-5.89,16.782-9.648,21.054s-21.894,25.099-21.894,25.099L2047.568,1155.22z"/>
		</g>
		<g>
			<path style="fill:#424773;" d="M1756.567,1805.237c0,0-2.923,20.287-3.288,23.335s-32.515-1.795-32.515-1.795l-2.603-24.153
				C1718.161,1802.624,1752.549,1802.375,1756.567,1805.237z"/>
		</g>
		<g>
			<path style="fill:#292C47;" d="M1753.621,1825.993c0,0,10.188,12.225,20.039,17.553c9.852,5.329,25.334,7.439,31.159,12.955
				c4.206,3.981,15.317,21.123-25.601,20.777c-40.918-0.347-60.646,2.421-65.03-4.151s6.344-48.509,6.344-48.509
				S1730.223,1828.106,1753.621,1825.993z"/>
		</g>
		<g>
			<path style="fill:#424773;" d="M1986.924,1805.237c0,0-2.922,20.287-3.287,23.335c-0.365,3.048-32.516-1.795-32.516-1.795
				l-2.604-24.153C1948.518,1802.624,1982.906,1802.375,1986.924,1805.237z"/>
		</g>
		<g>
			<path style="fill:#292C47;" d="M1983.979,1825.993c0,0,10.186,12.225,20.038,17.553c9.852,5.329,46.107,9.706,51.933,15.221
				c4.205,3.982,11.199,20.01-46.374,18.512c-40.903-1.065-60.646,2.421-65.03-4.151c-4.384-6.572,6.344-48.509,6.344-48.509
				S1960.018,1828.343,1983.979,1825.993z"/>
		</g>
		<g>
			<path style="fill:#292C47;" d="M1783.19,1283.926c0,0-30.208,47.995-27.955,91.38c2.253,43.385-10.953,90.751-15.491,136.072
				c-5.059,50.524-25.762,170.137-26.514,197.162c-0.751,27.027,3.214,113.328,3.214,113.328l41.443,0.948
				c0,0,34.808-209.111,43.822-230.448c9.015-21.336,53.72-173.449,55.222-190.52
				C1858.434,1384.78,1783.19,1283.926,1783.19,1283.926z"/>
		</g>
		<g>
			<path style="fill:#292C47;" d="M1942.215,1290.429c0,0,22.765,118.909,25.77,145.463s5.008,128.5,6.511,145.097
				c1.503,16.596,10.017,217.171,18.03,241.828h-52.984c0,0-40.671-145.812-40.671-214.801c0-68.988-31.421-149.979-51.704-195.498
				c-20.282-45.519-66.71-46.596-79.178-131.048C1767.988,1281.47,1925.333,1263.644,1942.215,1290.429z"/>
		</g>
		<g>
			<path style="fill:#EEA886;" d="M1833.6,880.409c0,0,40.547-15.145,59.242,15.721c18.697,30.864,16.895,92.656-3.543,100.255
				c-20.439,7.598-51.141,3.625-61.604-15.689c-10.464-19.313-19.912-47.234-19.457-65.894
				C1808.691,896.144,1822.953,885.797,1833.6,880.409z"/>
		</g>
		<g>
			<path style="fill:#EEA886;" d="M1884.897,997.798c0,0-1.688,10.947,1.102,16.34c2.788,5.393-52.53,5.533-52.53,5.533
				s-4.492-29.332-13.006-54.116C1811.949,940.771,1884.897,997.798,1884.897,997.798z"/>
		</g>
		<g>
			<path style="fill:#3A3F47;" d="M1820.463,965.555c0,0,3.817,6.299,19.403,3.856c15.585-2.444,34.599-23.18,41.106-25.456
				c6.507-2.276,6.568-6.1,6.568-6.1l4.074,5.951l6.912,0.438c0,0-6.305-18.549,3.206-26.113c9.511-7.564-9.87-60.037-59.854-42.567
				c0,0-38.39,10.582-36.993,32.415C1806.282,929.812,1811.873,954.682,1820.463,965.555z"/>
		</g>
		<g>
			<path style="fill:#E2D2CA;" d="M1889.282,1013.489c0,0-0.175-10.305-4.845-11.292c-4.671-0.988-51.553-5.495-57.285-3.242v12.003
				C1827.152,1010.958,1838.198,1017.756,1889.282,1013.489z"/>
		</g>
		<g>
			<path style="fill:#EEA886;" d="M1886.509,929.914c-0.874-3.662-10.187-14.127-13.752-2.922
				c-3.565,11.205,5.388,26.276,10.382,24.987C1888.133,950.688,1888.725,939.198,1886.509,929.914z"/>
		</g>
		<g>
			<path style="fill:#323657;" d="M2075.344,1135.23c-0.021-0.01-0.047-0.013-0.077-0.007
				C2075.588,1135.365,2075.634,1135.377,2075.344,1135.23z"/>
		</g>
		<g>
			<path style="fill:#EB4747;" d="M1749.111,1398.264c0,0,24.865,7.321,67.27,11.995c42.403,4.674,148.352-1.689,149.02-6.697
				c0.67-5.01-22.791-186.538-21.456-195.889c1.335-9.348,2.051-42.658,2.051-42.658c0.523,9.127,9.821,46.407,21.046,66.73
				c4.055,7.343,17.66,30.357,24.217,25.123c31.74-25.343,80.891-120.839,84.006-121.645c-2.62-1.139-23.293-10.657-26.194-11.625
				c-2.54-0.848-25.438,23.397-39.313,38.426c-6.186,6.699-10.578,11.566-10.578,11.566c-4.007-9.014-18.601-65.801-23.133-85.453
				c-10.229-44.323-8.656-46.166-8.656-46.166c-31.02-9.385-78.108-28.484-78.108-28.484l-62.13-2.53
				c0,0-57.022,12.552-79.479,22.695c-2.13,0.961-2.139,50.87-7.985,63.958l18.618,39.279c0,0,10.756,77.808,12.987,112.412
				C1772.317,1265.188,1749.111,1398.264,1749.111,1398.264z"/>
		</g>
		<g>
			<path style="fill:#EB4747;" d="M1737.107,1162.405c1.622,5.236,8.988,9.661,13.772,11.596c3.063,1.239,6.495,1.641,9.947,1.001
				l2.434-0.45v-0.003l42.579-7.896c0,0,9.316-107.293-58.168-133C1745.888,1034.237,1722.205,1114.366,1737.107,1162.405z"/>
		</g>
		<g>
			<path style="fill:#702222;" d="M1750.88,1173.998c0,0,0,0,0,0.003c3.063,1.239,6.495,1.641,9.947,1.001l2.434-0.45v-0.003
				l-4.199-54.827L1750.88,1173.998z"/>
		</g>
		<g>
			<path style="fill:#702222;" d="M1999.179,1173.591l5.204,22.037c0,0,5.646-22.113,5.374-33.604
				C2003.571,1168.724,1999.179,1173.591,1999.179,1173.591z"/>
		</g>
		<g>
			<path style="fill:#3A3F47;" d="M1822.052,884.052c0,0-53.14-6.656-0.901,82.106L1822.052,884.052z"/>
		</g>
		<g>
			<polygon style="fill:#292C47;" points="2093.145,1019.671 2098.545,1010.392 2056,995.711 2050.6,1004.942 			"/>
		</g>
	</g>
	<g style="opacity:0.95;">
		
			<linearGradient id="SVGID_00000000940257021204064240000011211473472146315701_" gradientUnits="userSpaceOnUse" x1="2449.0029" y1="580.5713" x2="2488.3711" y2="580.5713">
			<stop  offset="0" style="stop-color:#D1D7E0"/>
			<stop  offset="1" style="stop-color:#EBEBFF"/>
		</linearGradient>
		<polygon style="fill:url(#SVGID_00000000940257021204064240000011211473472146315701_);" points="2458.229,590.139 
			2488.371,590.139 2479.145,571.004 2449.003,571.004 		"/>
		
			<linearGradient id="SVGID_00000028297863019782367470000002824716334946154385_" gradientUnits="userSpaceOnUse" x1="2434.8984" y1="580.5713" x2="2451.3066" y2="580.5713">
			<stop  offset="0" style="stop-color:#D1D7E0"/>
			<stop  offset="1" style="stop-color:#EBEBFF"/>
		</linearGradient>
		<polygon style="fill:url(#SVGID_00000028297863019782367470000002824716334946154385_);" points="2444.125,590.139 
			2451.307,590.139 2442.081,571.004 2434.898,571.004 		"/>
		
			<linearGradient id="SVGID_00000035491476258112344190000000530388279305943184_" gradientUnits="userSpaceOnUse" x1="2335.9355" y1="562.5659" x2="2462.0371" y2="562.5659">
			<stop  offset="0" style="stop-color:#D1D7E0"/>
			<stop  offset="1" style="stop-color:#EBEBFF"/>
		</linearGradient>
		<polygon style="fill:url(#SVGID_00000035491476258112344190000000530388279305943184_);" points="2339.985,567.35 
			2462.037,567.35 2457.986,557.782 2335.936,557.782 		"/>
	</g>
	<g>
		<g>
			
				<linearGradient id="SVGID_00000083773526002877570590000001893303784597834669_" gradientUnits="userSpaceOnUse" x1="1754.2695" y1="177.2481" x2="1805.9893" y2="177.2481">
				<stop  offset="0" style="stop-color:#D1D7E0"/>
				<stop  offset="1" style="stop-color:#EBEBFF"/>
			</linearGradient>
			<path style="fill:url(#SVGID_00000083773526002877570590000001893303784597834669_);" d="M1803.172,185.042h-46.086
				c-1.556,0-2.816-1.262-2.816-2.817v-9.953c0-1.556,1.261-2.817,2.816-2.817h46.086c1.557,0,2.817,1.262,2.817,2.817v9.953
				C1805.989,183.78,1804.729,185.042,1803.172,185.042z"/>
		</g>
		<g>
			
				<linearGradient id="SVGID_00000173138152942632000830000010055851735464810881_" gradientUnits="userSpaceOnUse" x1="1754.2695" y1="214.6236" x2="1805.9893" y2="214.6236">
				<stop  offset="0" style="stop-color:#D1D7E0"/>
				<stop  offset="1" style="stop-color:#EBEBFF"/>
			</linearGradient>
			<path style="fill:url(#SVGID_00000173138152942632000830000010055851735464810881_);" d="M1803.172,222.417h-46.086
				c-1.556,0-2.816-1.261-2.816-2.817v-9.952c0-1.556,1.261-2.817,2.816-2.817h46.086c1.557,0,2.817,1.262,2.817,2.817v9.952
				C1805.989,221.156,1804.729,222.417,1803.172,222.417z"/>
		</g>
		<g>
			
				<linearGradient id="SVGID_00000079455775050284344620000016167555216641279673_" gradientUnits="userSpaceOnUse" x1="1754.2695" y1="251.9996" x2="1805.9893" y2="251.9996">
				<stop  offset="0" style="stop-color:#D1D7E0"/>
				<stop  offset="1" style="stop-color:#EBEBFF"/>
			</linearGradient>
			<path style="fill:url(#SVGID_00000079455775050284344620000016167555216641279673_);" d="M1803.172,259.793h-46.086
				c-1.556,0-2.816-1.262-2.816-2.817v-9.952c0-1.557,1.261-2.817,2.816-2.817h46.086c1.557,0,2.817,1.261,2.817,2.817v9.952
				C1805.989,258.531,1804.729,259.793,1803.172,259.793z"/>
		</g>
		<g>
			
				<linearGradient id="SVGID_00000176010651049524446630000012323337297848525472_" gradientUnits="userSpaceOnUse" x1="1827.3436" y1="177.2481" x2="1842.0604" y2="177.2481">
				<stop  offset="0" style="stop-color:#D1D7E0"/>
				<stop  offset="1" style="stop-color:#EBEBFF"/>
			</linearGradient>
			<path style="fill:url(#SVGID_00000176010651049524446630000012323337297848525472_);" d="M1839.243,185.042h-9.081
				c-1.557,0-2.818-1.262-2.818-2.817v-9.953c0-1.556,1.262-2.817,2.818-2.817h9.081c1.556,0,2.817,1.262,2.817,2.817v9.953
				C1842.06,183.78,1840.799,185.042,1839.243,185.042z"/>
		</g>
		<g>
			
				<linearGradient id="SVGID_00000059297722051159470460000009282547567672174735_" gradientUnits="userSpaceOnUse" x1="1827.3436" y1="214.6236" x2="1842.0604" y2="214.6236">
				<stop  offset="0" style="stop-color:#D1D7E0"/>
				<stop  offset="1" style="stop-color:#EBEBFF"/>
			</linearGradient>
			<path style="fill:url(#SVGID_00000059297722051159470460000009282547567672174735_);" d="M1839.243,222.417h-9.081
				c-1.557,0-2.818-1.261-2.818-2.817v-9.952c0-1.556,1.262-2.817,2.818-2.817h9.081c1.556,0,2.817,1.262,2.817,2.817v9.952
				C1842.06,221.156,1840.799,222.417,1839.243,222.417z"/>
		</g>
		<g>
			
				<linearGradient id="SVGID_00000178194350168856381320000011501148334712549311_" gradientUnits="userSpaceOnUse" x1="1827.3436" y1="251.9996" x2="1842.0604" y2="251.9996">
				<stop  offset="0" style="stop-color:#D1D7E0"/>
				<stop  offset="1" style="stop-color:#EBEBFF"/>
			</linearGradient>
			<path style="fill:url(#SVGID_00000178194350168856381320000011501148334712549311_);" d="M1839.243,259.793h-9.081
				c-1.557,0-2.818-1.262-2.818-2.817v-9.952c0-1.557,1.262-2.817,2.818-2.817h9.081c1.556,0,2.817,1.261,2.817,2.817v9.952
				C1842.06,258.531,1840.799,259.793,1839.243,259.793z"/>
		</g>
	</g>
	<g>
		
			<linearGradient id="SVGID_00000098932767231817817390000008398693413966268560_" gradientUnits="userSpaceOnUse" x1="1598.457" y1="1085.8359" x2="1669.123" y2="1085.8359">
			<stop  offset="0" style="stop-color:#D1D7E0"/>
			<stop  offset="1" style="stop-color:#EBEBFF"/>
		</linearGradient>
		<polygon style="fill:url(#SVGID_00000098932767231817817390000008398693413966268560_);" points="1615.018,1103.01 
			1669.123,1103.01 1652.563,1068.662 1598.457,1068.662 		"/>
		
			<linearGradient id="SVGID_00000165913826007240597590000017412596308026589855_" gradientUnits="userSpaceOnUse" x1="1573.1406" y1="1085.8359" x2="1602.5936" y2="1085.8359">
			<stop  offset="0" style="stop-color:#D1D7E0"/>
			<stop  offset="1" style="stop-color:#EBEBFF"/>
		</linearGradient>
		<polygon style="fill:url(#SVGID_00000165913826007240597590000017412596308026589855_);" points="1589.701,1103.01 
			1602.594,1103.01 1586.033,1068.662 1573.141,1068.662 		"/>
	</g>
	<g>
		<g>
			<path style="fill:#FFFFFF;" d="M153.324,371.522V195.125h78.013c8.113,0,15.609,1.699,22.484,5.092
				c6.871,3.398,12.795,7.869,17.764,13.416c4.97,5.552,8.859,11.846,11.677,18.883c2.815,7.042,4.224,14.122,4.224,21.242
				c0,11.429-2.857,21.824-8.572,31.18c-5.714,9.36-13.459,16.11-23.23,20.249l40.248,66.335h-38.509l-36.024-59.13h-33.79v59.13
				H153.324z M187.609,282.329h42.982c3.144,0,6.087-0.745,8.819-2.236c2.733-1.489,5.094-3.517,7.082-6.087
				c1.987-2.566,3.559-5.59,4.721-9.067c1.156-3.479,1.738-7.206,1.738-11.181c0-4.139-0.664-7.95-1.987-11.429
				c-1.329-3.479-3.106-6.498-5.342-9.068c-2.236-2.566-4.806-4.554-7.703-5.963c-2.898-1.404-5.838-2.112-8.819-2.112h-41.491
				V282.329z"/>
			<path style="fill:#FFFFFF;" d="M371.956,374.007c-10.435,0-19.875-1.782-28.322-5.343c-8.448-3.56-15.652-8.404-21.615-14.533
				c-5.962-6.126-10.559-13.25-13.789-21.366c-3.23-8.113-4.845-16.646-4.845-25.591c0-9.274,1.572-18.012,4.721-26.211
				c3.145-8.199,7.702-15.404,13.664-21.615c5.963-6.211,13.207-11.137,21.74-14.782c8.528-3.642,18.093-5.467,28.694-5.467
				c10.598,0,20.082,1.825,28.447,5.467c8.362,3.645,15.486,8.533,21.367,14.658c5.877,6.13,10.35,13.253,13.416,21.366
				c3.063,8.117,4.597,16.564,4.597,25.343c0,2.154-0.043,4.223-0.124,6.21c-0.086,1.988-0.292,3.646-0.621,4.97H338.664
				c0.497,5.136,1.739,9.689,3.727,13.665c1.986,3.974,4.553,7.371,7.701,10.186c3.145,2.818,6.709,4.97,10.684,6.46
				c3.975,1.489,8.113,2.235,12.422,2.235c6.624,0,12.877-1.615,18.758-4.844c5.877-3.23,9.895-7.492,12.049-12.795l28.572,7.949
				c-4.806,9.938-12.465,18.098-22.981,24.472C399.076,370.819,386.529,374.007,371.956,374.007z M405.745,295.496
				c-0.83-9.771-4.433-17.596-10.807-23.478c-6.378-5.877-14.124-8.819-23.23-8.819c-4.471,0-8.656,0.788-12.546,2.359
				c-3.893,1.576-7.329,3.77-10.311,6.584c-2.982,2.818-5.427,6.212-7.329,10.186c-1.906,3.976-3.024,8.366-3.354,13.167H405.745z"
				/>
			<path style="fill:#FFFFFF;" d="M452.204,306.43c0-9.107,1.573-17.723,4.721-25.84c3.146-8.113,7.703-15.236,13.665-21.366
				c5.963-6.125,13.168-11.013,21.615-14.658c8.447-3.642,17.97-5.467,28.57-5.467c14.244,0,26.375,3.068,36.398,9.193
				c10.02,6.129,17.516,14.162,22.484,24.1l-32.546,9.938c-2.819-4.802-6.545-8.486-11.181-11.056
				c-4.638-2.566-9.774-3.852-15.404-3.852c-4.806,0-9.277,0.956-13.416,2.857c-4.142,1.906-7.744,4.558-10.808,7.951
				c-3.066,3.397-5.465,7.495-7.204,12.298c-1.739,4.806-2.609,10.104-2.609,15.901c0,5.798,0.909,11.098,2.733,15.899
				c1.82,4.806,4.262,8.944,7.329,12.422c3.063,3.479,6.667,6.173,10.807,8.075c4.139,1.906,8.53,2.857,13.168,2.857
				c5.963,0,11.468-1.49,16.521-4.473c5.052-2.981,8.572-6.622,10.561-10.932l32.546,9.938
				c-4.473,9.939-11.844,18.056-22.112,24.348c-10.272,6.297-22.609,9.442-37.019,9.442c-10.602,0-20.124-1.825-28.571-5.466
				c-8.448-3.642-15.652-8.571-21.616-14.783c-5.962-6.211-10.559-13.416-13.789-21.614
				C453.819,323.943,452.204,315.373,452.204,306.43z"/>
			<path style="fill:#FFFFFF;" d="M678.041,270.155c-10.105,0.167-19.13,2.112-27.081,5.839c-7.95,3.726-13.665,9.316-17.143,16.771
				v78.757h-33.292V241.335h30.559v27.826c2.317-4.472,5.05-8.485,8.198-12.05c3.144-3.559,6.541-6.664,10.186-9.316
				c3.642-2.647,7.33-4.678,11.057-6.087c3.726-1.405,7.329-2.112,10.807-2.112c1.82,0,3.186,0,4.099,0
				c0.909,0,1.779,0.086,2.609,0.249V270.155z"/>
			<path style="fill:#FFFFFF;" d="M736.425,374.007c-13.416,0-23.602-4.306-30.559-12.919c-6.956-8.61-10.435-21.367-10.435-38.262
				v-81.491h33.292v74.286c0,20.043,7.205,30.063,21.614,30.063c6.46,0,12.71-1.945,18.758-5.839
				c6.044-3.89,10.97-9.813,14.783-17.765v-80.745h33.292v91.927c0,3.477,0.621,5.962,1.863,7.453
				c1.242,1.49,3.268,2.32,6.087,2.484v28.322c-3.316,0.66-6.087,1.075-8.324,1.243c-2.236,0.162-4.267,0.248-6.087,0.248
				c-5.963,0-10.808-1.366-14.534-4.1c-3.727-2.733-5.924-6.498-6.585-11.304l-0.745-10.435c-5.8,8.943-13.253,15.651-22.36,20.124
				C757.375,371.771,747.356,374.007,736.425,374.007z"/>
			<path style="fill:#FFFFFF;" d="M850.213,223.199v-33.044h33.292v33.044H850.213z M850.213,371.522V241.335h33.292v130.187
				H850.213z"/>
			<path style="fill:#FFFFFF;" d="M991.577,364.814c-4.472,1.987-9.938,3.976-16.398,5.963c-6.459,1.988-13.252,2.981-20.372,2.981
				c-4.639,0-8.987-0.582-13.043-1.738c-4.061-1.158-7.621-3.022-10.683-5.591c-3.067-2.566-5.509-5.878-7.33-9.938
				c-1.824-4.058-2.733-8.983-2.733-14.783v-74.783h-17.142v-25.59h17.142V199.1h33.292v42.235h27.33v25.59h-27.33v63.604
				c0,4.64,1.2,7.911,3.603,9.813c2.398,1.906,5.341,2.857,8.819,2.857c3.479,0,6.871-0.579,10.186-1.739
				c3.312-1.157,5.963-2.151,7.951-2.981L991.577,364.814z"/>
			<path style="fill:#FFFFFF;" d="M1008.965,223.199v-33.044h33.292v33.044H1008.965z M1008.965,371.522V241.335h33.292v130.187
				H1008.965z"/>
			<path style="fill:#FFFFFF;" d="M1193.31,371.522h-33.292v-73.043c0-10.435-1.824-18.051-5.465-22.857
				c-3.645-4.803-8.695-7.205-15.155-7.205c-3.315,0-6.708,0.664-10.186,1.987c-3.479,1.327-6.751,3.191-9.814,5.591
				c-3.067,2.402-5.838,5.26-8.323,8.571c-2.484,3.316-4.309,6.957-5.466,10.931v76.025h-33.292V241.335h30.062v24.101
				c4.802-8.281,11.759-14.74,20.869-19.379c9.107-4.635,19.379-6.958,30.808-6.958c8.113,0,14.74,1.491,19.875,4.473
				c5.133,2.981,9.107,6.876,11.926,11.677c2.814,4.806,4.759,10.273,5.838,16.399c1.076,6.129,1.615,12.34,1.615,18.633V371.522z"
				/>
			<path style="fill:#FFFFFF;" d="M1273.306,372.268c-8.781,0-16.731-1.739-23.851-5.218c-7.124-3.478-13.292-8.237-18.509-14.286
				c-5.217-6.044-9.235-13.043-12.05-20.993c-2.818-7.951-4.224-16.398-4.224-25.341c0-9.442,1.491-18.219,4.473-26.337
				c2.981-8.113,7.119-15.236,12.422-21.366c5.299-6.125,11.677-10.932,19.131-14.41c7.453-3.479,15.652-5.218,24.596-5.218
				c10.101,0,18.963,2.279,26.583,6.833c7.617,4.558,13.913,10.645,18.882,18.262v-22.858h29.068v123.976
				c0,9.604-1.825,18.219-5.466,25.838c-3.646,7.617-8.657,14.077-15.031,19.38c-6.378,5.298-13.998,9.355-22.857,12.174
				c-8.863,2.814-18.51,4.224-28.944,4.224c-14.247,0-26.211-2.36-35.901-7.081c-9.689-4.72-18.012-11.39-24.969-19.999
				l18.137-17.641c4.969,6.125,11.219,10.932,18.758,14.41c7.535,3.479,15.527,5.218,23.975,5.218
				c5.132,0,10.062-0.708,14.783-2.112c4.72-1.409,8.901-3.603,12.547-6.584c3.641-2.982,6.498-6.794,8.571-11.429
				c2.069-4.639,3.106-10.104,3.106-16.397v-16.398c-4.309,7.455-10.353,13.212-18.137,17.268
				C1290.613,370.24,1282.251,372.268,1273.306,372.268z M1284.486,345.684c3.642,0,7.12-0.578,10.436-1.739
				c3.311-1.157,6.374-2.733,9.192-4.721c2.815-1.987,5.298-4.305,7.453-6.956c2.151-2.648,3.809-5.467,4.97-8.448v-31.055
				c-2.982-7.618-7.663-13.746-14.038-18.386c-6.378-4.635-13.043-6.957-20-6.957c-5.135,0-9.774,1.118-13.912,3.354
				c-4.142,2.236-7.702,5.218-10.684,8.943c-2.981,3.728-5.261,7.993-6.832,12.796c-1.576,4.807-2.36,9.774-2.36,14.906
				c0,5.303,0.909,10.272,2.733,14.907c1.819,4.639,4.347,8.696,7.577,12.174c3.229,3.479,6.995,6.212,11.304,8.199
				C1274.63,344.69,1279.352,345.684,1284.486,345.684z"/>
		</g>
	</g>
</g>
</svg>
